<svg width="1280" height="360" viewBox="0 0 1280 360" fill="none" xmlns="http://www.w3.org/2000/svg" role="img" aria-labelledby="title desc">
  <title id="title">Mesh terminal agent CLI banner</title>
  <desc id="desc">A professional dark banner for Mesh, a terminal-first AI engineering agent.</desc>
  <rect width="1280" height="360" rx="28" fill="#0B0F14"/>
  <rect x="1" y="1" width="1278" height="358" rx="27" stroke="#1F2937" stroke-width="2"/>
  <path d="M0 282C138 244 230 253 353 282C513 320 628 330 791 287C948 245 1090 244 1280 298V360H0V282Z" fill="#111827"/>
  <path d="M90 83H1190" stroke="#1F2937" stroke-width="1"/>
  <path d="M90 277H1190" stroke="#1F2937" stroke-width="1"/>
  <path d="M126 104L188 166L126 228" stroke="#14B8A6" stroke-width="16" stroke-linecap="round" stroke-linejoin="round"/>
  <path d="M224 226H360" stroke="#F8FAFC" stroke-width="16" stroke-linecap="round"/>
  <circle cx="850" cy="125" r="7" fill="#14B8A6"/>
  <circle cx="932" cy="91" r="7" fill="#F59E0B"/>
  <circle cx="1018" cy="141" r="7" fill="#38BDF8"/>
  <circle cx="1102" cy="101" r="7" fill="#F8FAFC"/>
  <circle cx="945" cy="219" r="7" fill="#14B8A6"/>
  <circle cx="1054" cy="238" r="7" fill="#F59E0B"/>
  <path d="M850 125L932 91L1018 141L1102 101" stroke="#334155" stroke-width="3"/>
  <path d="M850 125L945 219L1054 238L1102 101" stroke="#334155" stroke-width="3"/>
  <path d="M932 91L945 219L1018 141L1054 238" stroke="#334155" stroke-width="3"/>
  <text x="415" y="158" fill="#F8FAFC" font-family="Inter, ui-sans-serif, system-ui, -apple-system, BlinkMacSystemFont, Segoe UI, sans-serif" font-size="74" font-weight="800" letter-spacing="0">Mesh</text>
  <text x="421" y="206" fill="#CBD5E1" font-family="Inter, ui-sans-serif, system-ui, -apple-system, BlinkMacSystemFont, Segoe UI, sans-serif" font-size="25" font-weight="500" letter-spacing="0">Terminal-first AI engineering agent</text>
  <text x="423" y="250" fill="#14B8A6" font-family="SFMono-Regular, Consolas, Liberation Mono, Menlo, monospace" font-size="21" font-weight="600" letter-spacing="0">npm install -g @edgarelmo/mesh-agent-cli</text>
</svg>
